<svg xmlns="http://www.w3.org/2000/svg" xmlns:xlink="http://www.w3.org/1999/xlink" width="153" height="43" viewBox="0 0 153 43">
    <defs>
        <linearGradient id="wzb53qtwyc" x1="85.838%" x2="17.185%" y1="100%" y2="2.155%">
            <stop offset="0%" stop-color="#FE5266"/>
            <stop offset="45.483%" stop-color="#FE5465"/>
            <stop offset="100%" stop-color="#FD7F54"/>
        </linearGradient>
        <linearGradient id="s905anwetd" x1="-43.42%" x2="57.689%" y1="124.694%" y2="57.332%">
            <stop offset="0%" stop-color="#AA21BB"/>
            <stop offset="100%" stop-color="#FD5366"/>
        </linearGradient>
        <linearGradient id="mbmqq6no0f" x1="119.414%" x2="26.065%" y1="-38.501%" y2="70.624%">
            <stop offset="0%" stop-color="#C93E96"/>
            <stop offset="100%" stop-color="#FE5365"/>
        </linearGradient>
        <path id="mp3zx141ka" d="M0 0.119L22.83 0.119 22.83 42 0 42z"/>
        <path id="gwsurtoete" d="M0 0.226L13.174 0.226 13.174 16.567 0 16.567z"/>
    </defs>
    <g fill="none" fill-rule="evenodd">
        <g>
            <g>
                <g>
                    <path fill="#262626" d="M46.1 29.464c-2.08 0-3.42-1.54-3.5-3.96 0-.18.1-.28.28-.28h1.26c.16 0 .26.1.28.26.04 1.52.62 2.28 1.7 2.28 1.06 0 1.62-.58 1.62-1.66 0-3.1-5.02-4.04-5.02-7.88 0-1.96 1.32-3.2 3.3-3.2 1.96 0 3.26 1.5 3.34 3.84 0 .16-.08.26-.26.26h-1.26c-.16 0-.26-.1-.26-.26-.06-1.48-.6-2.16-1.54-2.16-.98 0-1.52.52-1.52 1.52 0 2.86 5.04 3.8 5.04 7.88 0 2.06-1.38 3.36-3.46 3.36zm11.813-.02c-2.08 0-3.54-1.52-3.54-3.76v-6.88c0-2.24 1.46-3.76 3.54-3.76s3.52 1.52 3.52 3.62v7.16c0 2.1-1.44 3.62-3.52 3.62zm0-1.68c1.02 0 1.7-.76 1.7-1.86v-7.32c0-1.1-.68-1.86-1.7-1.86s-1.72.76-1.72 2v7.04c0 1.24.7 2 1.72 2zm9.074-12.52h1.28c.16 0 .26.1.26.28v10.34c0 1.14.62 1.9 1.62 1.9s1.62-.76 1.62-1.9v-10.34c0-.18.12-.28.28-.28h1.26c.18 0 .28.1.28.28v10.26c0 2.16-1.36 3.68-3.44 3.68s-3.42-1.52-3.42-3.68v-10.26c0-.18.1-.28.26-.28zm12.393 14c-.16 0-.26-.1-.26-.28v-10.26c0-2.16 1.34-3.68 3.42-3.68s3.44 1.52 3.44 3.68v10.26c0 .18-.1.28-.28.28h-1.26c-.16 0-.28-.1-.28-.28v-10.34c0-1.14-.62-1.9-1.62-1.9s-1.62.76-1.62 1.9v10.34c0 .18-.1.28-.26.28h-1.28zm13.054.06c-.52 0-.82-.28-.82-.8v-12.52c0-.52.3-.8.82-.8h2.58c2.1 0 3.42 1.52 3.42 3.62v6.88c0 2.1-1.34 3.62-3.42 3.62h-2.58zm1-1.68h1.52c1.04 0 1.66-.76 1.66-1.9v-6.96c0-1.14-.6-1.9-1.66-1.9h-1.52v10.76zm15.973-5.62c.82.62 1.3 1.56 1.3 2.7v.84c0 2.3-1.44 3.78-3.56 3.78h-2.54c-.6 0-1.06-.44-1.06-1.06v-9.52c0-2.24 1.4-3.72 3.44-3.72 2.08 0 3.48 1.48 3.48 3.72v.8c.02 1.04-.38 1.9-1.06 2.46zm-3.36-3.48v2.54h.96c.6 0 .96-.46.96-1.24v-1.3c0-.72-.38-1.18-1-1.18-.58 0-.92.46-.92 1.18zm2.12 7.22v-1.12c0-.84-.4-1.34-1.08-1.34h-1.04v3.76h1.04c.68 0 1.08-.48 1.08-1.3zm7.453-10.5h1.8c.22 0 .34.12.34.36v10.28c0 .76.4 1.26 1.08 1.26s1.08-.5 1.08-1.26v-10.28c0-.24.14-.36.36-.36h1.8c.22 0 .36.12.36.36v10.1c0 2.24-1.42 3.78-3.6 3.78-2.16 0-3.58-1.54-3.58-3.78v-10.1c0-.24.12-.36.36-.36zm14.074 11.7h4.16c.22 0 .34.12.34.34v1.6c0 .24-.12.36-.34.36h-5.6c-.76 0-1.18-.42-1.18-1.18v-.34c0-.6.06-1 .28-1.46l4.12-8.72h-3.62c-.22 0-.34-.12-.34-.34v-1.62c0-.22.12-.34.34-.34h5.04c.74 0 1.18.34 1.2 1.1v.38c0 .58 0 .98-.24 1.46l-4.16 8.76zm11.453 0h4.16c.22 0 .34.12.34.34v1.6c0 .24-.12.36-.34.36h-5.6c-.76 0-1.18-.42-1.18-1.18v-.34c0-.6.06-1 .28-1.46l4.12-8.72h-3.62c-.22 0-.34-.12-.34-.34v-1.62c0-.22.12-.34.34-.34h5.04c.74 0 1.18.34 1.2 1.1v.38c0 .58 0 .98-.24 1.46l-4.16 8.76z" transform="translate(-69 -41) translate(31 41) translate(38)"/>
                    <g>
                        <g transform="translate(-69 -41) translate(31 41) translate(38)">
                            <mask id="oep29r2eqb" fill="#fff">
                                <use xlink:href="#mp3zx141ka"/>
                            </mask>
                            <path fill="#FD6F5A" d="M22.597 25.804c-.002 1.218-.336 2.401-.945 3.423-.113.187-.232.369-.361.544-.193.261-.407.511-.64.744l-9.025 9.047-.635.637c-.165.165-.338.321-.515.464-.062.051-.126.1-.19.15-.065.05-.081.06-.097.072C9.08 41.63 7.817 42 6.552 42c-1.635 0-3.275-.618-4.547-1.862-2.605-2.55-2.681-6.76-.17-9.403l1.081-1.139 3.827-3.84-.087-.09-4.331-4.396C.466 19.387-.045 16.65.797 14.293c.057-.157.119-.313.187-.466.085-.191.18-.38.288-.567.156-.28.335-.55.538-.807.133-.17.278-.338.43-.5l9.315-9.8c.039-.043.08-.08.12-.119.052-.052.104-.104.157-.154.06-.055.119-.108.179-.16.04-.036.081-.07.122-.104.222-.183.451-.35.689-.5l.099-.06c.078-.048.157-.095.237-.138.198-.107.364-.187.532-.26l.092-.04c.082-.034.165-.066.248-.097l.103-.037c.155-.054.312-.102.47-.144.03-.008.059-.017.089-.024.08-.02.16-.038.24-.055.047-.01.094-.02.142-.028.078-.015.156-.03.234-.041.056-.009.113-.015.17-.022.121-.015.243-.026.366-.035l.18-.01c.07-.002.14-.005.21-.005.064-.001.086.002.107.002.138.001.276.007.415.017l.121.01c.132.013.264.03.396.05l.119.018c.138.024.274.053.41.086.032.008.064.014.096.023.167.042.333.09.497.148.881.305 1.714.807 2.429 1.507 1.81 1.773 2.401 4.347 1.748 6.638-.287 1.006-.814 1.958-1.58 2.765l-4.823 5.075 4.51 4.623c.922.937 1.54 2.123 1.794 3.402.083.431.127.872.124 1.32z" mask="url(#oep29r2eqb)"/>
                        </g>
                        <path fill="#5A52FF" d="M11.472 39.613l-.002.004c-.109.133-.225.265-.345.39-.316.33-.656.618-1.02.865-.001.002-.003.004-.006.004-.013.012-.03.02-.045.032-.007.004-.012.01-.018.012C8.96 41.64 7.714 42 6.466 42c-1.614 0-3.232-.605-4.487-1.823-2.572-2.497-2.647-6.619-.168-9.208l1.066-1.115.05-.05 3.64-3.797v-.003L6.573 26l4.498 4.588c2.429 2.479 2.567 6.383.402 9.025" transform="translate(-69 -41) translate(31 41) translate(38)"/>
                        <g>
                            <g>
                                <path fill="url(#wzb53qtwyc)" d="M21.652 29.11c-.11.186-.23.368-.361.543-.193.261-.407.51-.64.744l-9.025 9.046-.635.637c-.165.166-.338.322-.515.465-.062.05-.126.1-.19.149-.065.051-.081.06-.097.072-1.109.747-2.372 1.116-3.637 1.116-1.635 0-3.275-.619-4.547-1.862-2.606-2.55-2.681-6.76-.17-9.404l1.081-1.138 3.83-3.839-.09-.09-4.33-4.397C.341 19.143-.109 16.162.983 13.71c.087-.191.182-.383.288-.567.158-.28.338-.55.538-.807.133-.17.278-.339.43-.5 1.302-1.37 3.036-2.058 4.772-2.058 1.71 0 3.418.668 4.718 2.002l4.439 4.562 4.51 4.625c.922.935 1.541 2.12 1.794 3.4.085.43.129.874.127 1.32-.003 1.218-.336 2.401-.948 3.423z" transform="translate(-69 -41) translate(31 41) translate(38)"/>
                                <path fill="url(#s905anwetd)" d="M16.168 16.34l-4.56-4.686c-2.587-2.66-2.612-6.929-.054-9.62 2.514-2.643 6.663-2.72 9.269-.172 2.606 2.55 2.682 6.76.17 9.403l-4.825 5.075z" transform="translate(-69 -41) translate(31 41) translate(38)"/>
                            </g>
                            <g transform="translate(-69 -41) translate(31 41) translate(38) translate(0 25.317)">
                                <mask id="x11zhgr59g" fill="#fff">
                                    <use xlink:href="#gwsurtoete"/>
                                </mask>
                                <path fill="url(#mbmqq6no0f)" d="M11.274 14.532c-.32.336-.664.63-1.032.882-.02.016-.037.026-.053.037-1.109.747-2.372 1.116-3.637 1.116-1.635 0-3.275-.619-4.547-1.862-2.606-2.55-2.682-6.76-.17-9.404l1.081-1.138.05-.052L6.657.233l4.563 4.679c2.461 2.531 2.601 6.519.407 9.216-.113.14-.23.276-.352.404z" mask="url(#x11zhgr59g)"/>
                            </g>
                        </g>
                    </g>
                </g>
            </g>
        </g>
    </g>
</svg>
