<svg xmlns="http://www.w3.org/2000/svg" width="20" height="20" viewBox="0 0 20 20">
    <g fill="none" fill-rule="evenodd">
        <g fill="#240F39">
            <g>
                <g>
                    <path d="M12.703 5.979c-.549-.279-1.284-.746-1.54-1.373 0-.335-.254-.606-.566-.606-.311 0-.564.271-.564.606v7.932c-.584-.332-1.673-.225-2.519.28-1.298.776-1.862 2.234-1.293 3.258.57 1.025 2.098 1.229 3.4.452.908-.546 1.512-1.454 1.535-2.335V7.355c1.874 0 2.986.796 2.575 2.77-.079.365-.191.72-.336 1.06-.066.113-.058.259.02.363.09.1.271.085.417-.066.705-.723 1.123-1.71 1.168-2.755.02-1.375-1.226-2.203-2.297-2.748" transform="translate(-31 -726) translate(31 460) translate(0 266)"/>
                </g>
            </g>
        </g>
    </g>
</svg>
