<svg xmlns="http://www.w3.org/2000/svg" width="20" height="20" viewBox="0 0 20 20">
    <g fill="none" fill-rule="evenodd">
        <g fill="#240F39">
            <g>
                <g>
                    <g>
                        <g stroke="#240F39" stroke-width=".3">
                            <path d="M9.509 7.662c-.638-.477-1.38-.816-2.167-.998 1.371-.503 2.345-1.751 2.345-3.208 0-1.9-1.655-3.445-3.691-3.445-2.037 0-3.692 1.545-3.692 3.445 0 1.455.972 2.702 2.34 3.206-2.12.487-3.79 2.096-4.18 4.18-.03.156.082.305.25.332.018.003.036.005.054.005.146 0 .276-.099.303-.238.42-2.236 2.49-3.857 4.927-3.857 1.151 0 2.232.354 3.129 1.025.132.1.327.08.432-.044.105-.123.083-.303-.05-.403h0zm-6.59-4.207c0-1.586 1.378-2.87 3.076-2.87 1.698 0 3.077 1.284 3.077 2.87S7.693 6.326 5.995 6.326c-1.697 0-3.076-1.285-3.076-2.87z" transform="translate(-31 -584) translate(31 460) translate(0 124) translate(3 4)"/>
                        </g>
                        <path d="M11.796 4.373c0-.206-.137-.373-.306-.373-.169 0-.306.167-.306.373v4.881c-.316-.204-.905-.139-1.364.172-.703.478-1.008 1.375-.7 2.006.308.63 1.136.756 1.841.277.492-.335.82-.894.832-1.436V6.065c1.015 0 1.617.49 1.394 1.704-.042.225-.103.443-.182.652-.035.07-.03.16.011.224.05.062.147.052.227-.04.381-.446.607-1.053.632-1.696.01-.846-.664-1.356-1.244-1.691-.297-.172-.696-.46-.835-.845z" transform="translate(-31 -584) translate(31 460) translate(0 124) translate(3 4)"/>
                    </g>
                </g>
            </g>
        </g>
    </g>
</svg>
