<svg xmlns="http://www.w3.org/2000/svg" width="20" height="20" viewBox="0 0 20 20">
    <g fill="none" fill-rule="evenodd">
        <g stroke="#240F39">
            <g>
                <g>
                    <g>
                        <path stroke-width=".9" d="M1.186 4.367l.615-.629c.649-.664 1.647-1.663 2.945-2.99" transform="translate(-31 -772) translate(31 460) translate(0 312) translate(6 2)"/>
                        <path fill="#240F39" stroke-width=".72" d="M8.83 9.167c-.099-.508-.345-.97-.705-1.336l-1.802-1.84-1.85-1.55c.035.033 1.668 1.7 1.668 1.7l1.813 1.853c.33.334.552.753.645 1.217.03.158.047.316.045.473 0 .434-.119.858-.341 1.229-.038.065-.08.13-.128.195-.071.093-.15.183-.232.267L4.3 15.01c-.06.058-.123.116-.187.168-.021.018-.045.034-.071.055l-.029.021c-.388.26-.838.399-1.305.399-.61 0-1.19-.237-1.631-.666-.936-.913-.964-2.425-.062-3.371l.407-.425 1.526-1.523L1.2 7.9C.508 7.205.314 6.131.717 5.234c.03-.07.063-.137.104-.204.057-.102.123-.2.192-.287.05-.063.101-.123.156-.181.054-.056.109-.11.168-.158l.01-.01.592-.623c-.35.135-.673.35-.943.633-.062.063-.118.13-.17.197-.079.097-.15.204-.214.316-.04.071-.078.148-.113.225-.44.983-.228 2.158.53 2.921l1.587 1.605-1.367 1.363-.407.427c-.988 1.037-.96 2.692.069 3.694.485.47 1.122.733 1.797.733.514 0 1.012-.153 1.447-.445l.034-.026.075-.058c.07-.056.138-.118.204-.183l3.645-3.636c.09-.093.175-.19.251-.292.052-.07.1-.142.145-.216.241-.403.371-.87.371-1.343.003-.174-.014-.348-.05-.519" transform="translate(-31 -772) translate(31 460) translate(0 312) translate(6 2)"/>
                        <path stroke-width=".9" d="M6.36 6.152L4.64 4.423c-.978-.982-.987-2.557-.021-3.55C5.568-.101 7.134-.13 8.118.81c.983.941 1.012 2.494.064 3.47L6.36 6.151z" transform="translate(-31 -772) translate(31 460) translate(0 312) translate(6 2)"/>
                    </g>
                </g>
            </g>
        </g>
    </g>
</svg>
