<svg xmlns="http://www.w3.org/2000/svg" height="40" viewBox="0 -960 960 960" width="40">
    <path d="M480.571-115.334q-29.071 0-49.654-20.467-20.583-20.467-20.583-49.293 0-28.339 20.419-49.455 20.418-21.117 49.176-21.117 29.571 0 49.654 21.087 20.083 21.086 20.083 49.582 0 28.497-20.012 49.08-20.013 20.583-49.083 20.583Zm0-295q-29.071 0-49.654-20.419-20.583-20.418-20.583-49.176 0-29.571 20.419-49.654 20.418-20.083 49.176-20.083 29.571 0 49.654 20.012 20.083 20.013 20.083 49.083 0 29.071-20.012 49.654-20.013 20.583-49.083 20.583Zm0-294q-29.071 0-49.654-20.796-20.583-20.795-20.583-50.083 0-29.287 20.419-49.704 20.418-20.416 49.176-20.416 29.571 0 49.654 20.511 20.083 20.511 20.083 49.798 0 29.287-20.012 49.988-20.013 20.702-49.083 20.702Z"/>
</svg>