<svg xmlns="http://www.w3.org/2000/svg" height="40" viewBox="0 -960 960 960" width="40">
<path d="M427.667-668.668 383-624q-15.334 15.333-36.5 15.333-21.167 0-36.833-15.667-15.334-15.333-15.334-36.666t15.334-36.667L442.334-831Q458-846.667 480-846.667q22 0 37.666 15.667l132.667 133.333q15.334 15.334 15.5 36.5.167 21.167-15.5 36.833Q635-609 613.667-608.5T577-624l-44.667-44.668v524.335q0 22-15.167 37.166Q502-92 480-92q-22 0-37.166-15.167-15.167-15.166-15.167-37.166v-524.335Z" fill="#fe5266"/>
</svg>