<svg xmlns="http://www.w3.org/2000/svg" height="40" viewBox="0 -960 960 960" width="40"><path d="M563.833-198.167v-25.166q82.667-29.833 132.417-100.25T746-481.333q0-86.5-49.75-157.25-49.75-70.751-132.417-100.751V-764.5Q655-731 712.083-654.083q57.084 76.916 57.084 172.75 0 96.666-57.084 173.583Q655-230.833 563.833-198.167ZM190.833-413v-134H320l124.667-124.667v383.334L320-413H190.833Zm369 57.667V-606.5q32.334 20.833 48.334 54.75t16 71.75q0 38.333-16.5 71.083t-47.834 53.584ZM421.5-614.834l-90.833 91.001H214v87.666h116.667L421.5-346v-268.834ZM323.5-480Z"/></svg>